<mxfile host="app.diagrams.net" modified="2022-11-25T16:41:25.143Z" agent="5.0 (Macintosh; Intel Mac OS X 10_15_7) AppleWebKit/605.1.15 (KHTML, like Gecko) Version/15.6 Safari/605.1.15" version="20.6.0" etag="Qa0GDA_F1DA61Q-Us7M_" type="github">
  <diagram id="jzwjUSY3QaUkcm6oz3zR" name="Page-1">
    <mxGraphModel dx="1025" dy="948" grid="1" gridSize="10" guides="1" tooltips="1" connect="1" arrows="1" fold="1" page="1" pageScale="1" pageWidth="850" pageHeight="1100" math="0" shadow="0">
      <root>
        <mxCell id="0" />
        <mxCell id="1" parent="0" />
        <mxCell id="NrFgvhxCZPmPd3hg9J9--1" value="" style="whiteSpace=wrap;html=1;" vertex="1" parent="1">
          <mxGeometry x="360" y="460" width="120" height="60" as="geometry" />
        </mxCell>
      </root>
    </mxGraphModel>
  </diagram>
</mxfile>
